<svg xmlns="http://www.w3.org/2000/svg" viewBox="0 0 1040 750" width="1040" height="750" role="img" aria-labelledby="ps-title ps-desc">
  <title id="ps-title">Normal-incidence polarization-dependent structural color</title>
  <desc id="ps-desc">Five aligned 2 by 2 arrays of Al nano-ellipses have short radii of 25, 30, 35, 40 and 45 nm and the same long radius of 100 nm. The Al ground mirror, SiO₂ gap and Al ellipses form a MIM metamirror below a planarizing dielectric cavity spacer and a thin Ag top mirror. White light travels vertically down and disappears completely before colored reflected light grows upward, once per polarization. The incoming and reflected beams never appear together. x-polarized colors are sampled from Figure 1(e). A representative cyan from Figure 1(f) summarizes the nearly invariant y response. Geometry stays fixed; timing and the cutaway are schematic, not a field simulation.</desc>
  <defs>
    <linearGradient id="ps-metal" x1="0" y1="0" x2=".85" y2="1"><stop stop-color="#f2f7fd"/><stop offset=".25" stop-color="#a8bacd"/><stop offset=".6" stop-color="#d7e4f1"/><stop offset="1" stop-color="#6b88a6"/></linearGradient>
    <linearGradient id="ps-metal-edge" x1="0" y1="0" x2="1" y2="0"><stop stop-color="#5d7995"/><stop offset=".45" stop-color="#b5c8dc"/><stop offset="1" stop-color="#344d68"/></linearGradient>
    <linearGradient id="ps-ground" x1="0" y1="0" x2="0" y2="1"><stop stop-color="#46627e"/><stop offset="1" stop-color="#172b43"/></linearGradient>
    <linearGradient id="ps-dielectric" x1="0" y1="0" x2="0" y2="1"><stop stop-color="#78adc7" stop-opacity=".14"/><stop offset="1" stop-color="#78adc7" stop-opacity=".035"/></linearGradient>
    <linearGradient id="ps-cap" x1="0" y1="0" x2="1" y2="1"><stop stop-color="#dce9f7" stop-opacity=".2"/><stop offset=".5" stop-color="#b7cde4" stop-opacity=".07"/><stop offset="1" stop-color="#dce9f7" stop-opacity=".14"/></linearGradient>
    <linearGradient id="ps-beam-shine" x1="0" y1="0" x2="1" y2="0"><stop stop-color="#fff" stop-opacity="0"/><stop offset=".35" stop-color="#fff" stop-opacity=".32"/><stop offset=".6" stop-color="#fff" stop-opacity=".03"/><stop offset="1" stop-color="#fff" stop-opacity="0"/></linearGradient>
    <radialGradient id="ps-shadow"><stop stop-color="#010813" stop-opacity=".85"/><stop offset="1" stop-color="#010813" stop-opacity="0"/></radialGradient>
    <filter id="ps-glow" x="-100%" y="-20%" width="300%" height="140%"><feGaussianBlur stdDeviation="7"/></filter>
  </defs>
  <g font-family="system-ui,sans-serif">
  <g class="ps-light-label" fill="#c1d0e1" font-size="14">
    <text x="79" y="47" fill="#eff5fd" font-size="17">Normal incidence</text>
    <text x="79" y="70">White light ↓</text><text x="79" y="91">Reflected color ↑</text>
    <text x="910" y="68" text-anchor="end" fill="#849db7" font-size="12">FIVE REPRESENTATIVE GEOMETRIES</text>
  </g>
  <g class="ps-polarization" transform="translate(967,69)">
    <circle r="29" fill="#102238" stroke="#6f8ba7"/>
    <circle r="23" fill="none" stroke="#8ba8c5" stroke-opacity=".35" stroke-dasharray="1 5"/>
    <g data-polarization-axis="true" transform="rotate(0)"><path d="M-18,0H18" stroke="#f4f8ff" stroke-width="3"/><path d="M-21,0L-13,-5V5Z M21,0L13,-5V5Z" fill="#f4f8ff"/></g>
    <text y="49" text-anchor="middle" fill="#9cb4cc" font-size="12">E-field</text>
  </g>
  <ellipse cx="459" cy="621" rx="422" ry="68" fill="url(#ps-shadow)"/>
  <g class="ps-device" stroke-linejoin="round">
  <g class="ps-layer" data-layer="bottom-al">
    <polygon points="79.00,550.00 739.00,610.00 739.00,640.00 79.00,580.00" fill="url(#ps-ground)" stroke="#627f9c"/><polygon points="834.00,530.00 739.00,610.00 739.00,640.00 834.00,560.00" fill="#233c56" stroke="#627f9c"/>
    <polygon points="174.00,470.00 834.00,530.00 739.00,610.00 79.00,550.00" fill="#44627e" stroke="#9fb9d2"/>
  </g>
  <g class="ps-layer" data-layer="gap-sio2">
    <polygon points="79.00,534.00 739.00,594.00 739.00,610.00 79.00,550.00" fill="#8bb6cb" stroke="#b6dce9"/><polygon points="834.00,514.00 739.00,594.00 739.00,610.00 834.00,530.00" fill="#5d91ac" stroke="#9ac4d8"/>
    <polygon points="174.00,454.00 834.00,514.00 739.00,594.00 79.00,534.00" fill="#658aa3" stroke="#a9ccdf"/>
  </g><path d="M306.00,466.00L211.00,546.00" stroke="#c5e0ed" stroke-opacity=".28" stroke-dasharray="3 6"/><path d="M438.00,478.00L343.00,558.00" stroke="#c5e0ed" stroke-opacity=".28" stroke-dasharray="3 6"/><path d="M570.00,490.00L475.00,570.00" stroke="#c5e0ed" stroke-opacity=".28" stroke-dasharray="3 6"/><path d="M702.00,502.00L607.00,582.00" stroke="#c5e0ed" stroke-opacity=".28" stroke-dasharray="3 6"/><polygon points="179.44,457.54 292.96,467.86 205.56,541.46 92.04,531.14" class="ps-cell-response" data-color-index="0" fill="#defaa6" fill-opacity="0.2"/><path d="M232.40,465.40L152.60,532.60M142.34,494.44L242.66,503.56" stroke="#d0e5f3" stroke-opacity=".15" stroke-dasharray="2 5"/><polygon points="311.44,469.54 424.96,479.86 337.56,553.46 224.04,543.14" class="ps-cell-response" data-color-index="1" fill="#f6d4ef" fill-opacity="0.2"/><path d="M364.40,477.40L284.60,544.60M274.34,506.44L374.66,515.56" stroke="#d0e5f3" stroke-opacity=".15" stroke-dasharray="2 5"/><polygon points="443.44,481.54 556.96,491.86 469.56,565.46 356.04,555.14" class="ps-cell-response" data-color-index="2" fill="#ed9bfd" fill-opacity="0.2"/><path d="M496.40,489.40L416.60,556.60M406.34,518.44L506.66,527.56" stroke="#d0e5f3" stroke-opacity=".15" stroke-dasharray="2 5"/><polygon points="575.44,493.54 688.96,503.86 601.56,577.46 488.04,567.14" class="ps-cell-response" data-color-index="3" fill="#7cb7fd" fill-opacity="0.2"/><path d="M628.40,501.40L548.60,568.60M538.34,530.44L638.66,539.56" stroke="#d0e5f3" stroke-opacity=".15" stroke-dasharray="2 5"/><polygon points="707.44,505.54 820.96,515.86 733.56,589.46 620.04,579.14" class="ps-cell-response" data-color-index="4" fill="#01eefe" fill-opacity="0.2"/><path d="M760.40,513.40L680.60,580.60M670.34,542.44L770.66,551.56" stroke="#d0e5f3" stroke-opacity=".15" stroke-dasharray="2 5"/><g class="ps-layer" data-layer="nano-ellipse"><g class="ps-meta-atom" data-region-index="0" data-array-row="0" data-array-column="0" data-radius-nm="25" transform="matrix(1 0.09090909090909091 -0.475 0.4 184.94 454.04)">
      <ellipse cx="25.723076923076917" cy="54.153846153846146" rx="10" ry="40" fill="#203b54"/>
      <path d="M4.657464328326223,-35.396728895279296A10,40 0 0 1 -4.657464328326223,35.396728895279296L21.065612594750693,89.55057504912544A10,40 0 0 0 30.38054125140314,18.75711725856685Z" fill="url(#ps-metal-edge)"/>
      <ellipse rx="10" ry="40" fill="url(#ps-metal)" stroke="#e1eff9" stroke-width="1.1"/>
    </g><g class="ps-meta-atom" data-region-index="0" data-array-row="0" data-array-column="1" data-radius-nm="25" transform="matrix(1 0.09090909090909091 -0.475 0.4 245.66 459.56)">
      <ellipse cx="25.723076923076917" cy="54.153846153846146" rx="10" ry="40" fill="#203b54"/>
      <path d="M4.657464328326223,-35.396728895279296A10,40 0 0 1 -4.657464328326223,35.396728895279296L21.065612594750693,89.55057504912544A10,40 0 0 0 30.38054125140314,18.75711725856685Z" fill="url(#ps-metal-edge)"/>
      <ellipse rx="10" ry="40" fill="url(#ps-metal)" stroke="#e1eff9" stroke-width="1.1"/>
    </g><g class="ps-meta-atom" data-region-index="1" data-array-row="0" data-array-column="0" data-radius-nm="30" transform="matrix(1 0.09090909090909091 -0.475 0.4 316.94 466.04)">
      <ellipse cx="25.723076923076917" cy="54.153846153846146" rx="12" ry="40" fill="#203b54"/>
      <path d="M6.407915896655781,-33.81955612123885A12,40 0 0 1 -6.407915896655781,33.81955612123885L19.315161026421137,87.973402275085A12,40 0 0 0 32.1309928197327,20.3342900326073Z" fill="url(#ps-metal-edge)"/>
      <ellipse rx="12" ry="40" fill="url(#ps-metal)" stroke="#e1eff9" stroke-width="1.1"/>
    </g><g class="ps-meta-atom" data-region-index="1" data-array-row="0" data-array-column="1" data-radius-nm="30" transform="matrix(1 0.09090909090909091 -0.475 0.4 377.66 471.56)">
      <ellipse cx="25.723076923076917" cy="54.153846153846146" rx="12" ry="40" fill="#203b54"/>
      <path d="M6.407915896655781,-33.81955612123885A12,40 0 0 1 -6.407915896655781,33.81955612123885L19.315161026421137,87.973402275085A12,40 0 0 0 32.1309928197327,20.3342900326073Z" fill="url(#ps-metal-edge)"/>
      <ellipse rx="12" ry="40" fill="url(#ps-metal)" stroke="#e1eff9" stroke-width="1.1"/>
    </g><g class="ps-meta-atom" data-region-index="2" data-array-row="0" data-array-column="0" data-radius-nm="35" transform="matrix(1 0.09090909090909091 -0.475 0.4 448.94 478.04)">
      <ellipse cx="25.723076923076917" cy="54.153846153846146" rx="14" ry="40" fill="#203b54"/>
      <path d="M8.304786532697902,-32.20223349413472A14,40 0 0 1 -8.304786532697902,32.20223349413472L17.418290390379013,86.35607964798086A14,40 0 0 0 34.02786345577482,21.95161265971143Z" fill="url(#ps-metal-edge)"/>
      <ellipse rx="14" ry="40" fill="url(#ps-metal)" stroke="#e1eff9" stroke-width="1.1"/>
    </g><g class="ps-meta-atom" data-region-index="2" data-array-row="0" data-array-column="1" data-radius-nm="35" transform="matrix(1 0.09090909090909091 -0.475 0.4 509.66 483.56)">
      <ellipse cx="25.723076923076917" cy="54.153846153846146" rx="14" ry="40" fill="#203b54"/>
      <path d="M8.304786532697902,-32.20223349413472A14,40 0 0 1 -8.304786532697902,32.20223349413472L17.418290390379013,86.35607964798086A14,40 0 0 0 34.02786345577482,21.95161265971143Z" fill="url(#ps-metal-edge)"/>
      <ellipse rx="14" ry="40" fill="url(#ps-metal)" stroke="#e1eff9" stroke-width="1.1"/>
    </g><g class="ps-meta-atom" data-region-index="3" data-array-row="0" data-array-column="0" data-radius-nm="40" transform="matrix(1 0.09090909090909091 -0.475 0.4 580.94 490.04)">
      <ellipse cx="25.723076923076917" cy="54.153846153846146" rx="16" ry="40" fill="#203b54"/>
      <path d="M10.306171932524474,-30.596447924682035A16,40 0 0 1 -10.306171932524474,30.596447924682035L15.416904990552442,84.75029407852819A16,40 0 0 0 36.029248855601395,23.55739822916411Z" fill="url(#ps-metal-edge)"/>
      <ellipse rx="16" ry="40" fill="url(#ps-metal)" stroke="#e1eff9" stroke-width="1.1"/>
    </g><g class="ps-meta-atom" data-region-index="3" data-array-row="0" data-array-column="1" data-radius-nm="40" transform="matrix(1 0.09090909090909091 -0.475 0.4 641.66 495.56)">
      <ellipse cx="25.723076923076917" cy="54.153846153846146" rx="16" ry="40" fill="#203b54"/>
      <path d="M10.306171932524474,-30.596447924682035A16,40 0 0 1 -10.306171932524474,30.596447924682035L15.416904990552442,84.75029407852819A16,40 0 0 0 36.029248855601395,23.55739822916411Z" fill="url(#ps-metal-edge)"/>
      <ellipse rx="16" ry="40" fill="url(#ps-metal)" stroke="#e1eff9" stroke-width="1.1"/>
    </g><g class="ps-meta-atom" data-region-index="4" data-array-row="0" data-array-column="0" data-radius-nm="45" transform="matrix(1 0.09090909090909091 -0.475 0.4 712.94 502.04)">
      <ellipse cx="25.723076923076917" cy="54.153846153846146" rx="18" ry="40" fill="#203b54"/>
      <path d="M12.379403662394095,-29.038107356233063A18,40 0 0 1 -12.379403662394095,29.038107356233063L13.343673260682822,83.1919535100792A18,40 0 0 0 38.102480585471014,25.115738797613083Z" fill="url(#ps-metal-edge)"/>
      <ellipse rx="18" ry="40" fill="url(#ps-metal)" stroke="#e1eff9" stroke-width="1.1"/>
    </g><g class="ps-meta-atom" data-region-index="4" data-array-row="0" data-array-column="1" data-radius-nm="45" transform="matrix(1 0.09090909090909091 -0.475 0.4 773.66 507.56)">
      <ellipse cx="25.723076923076917" cy="54.153846153846146" rx="18" ry="40" fill="#203b54"/>
      <path d="M12.379403662394095,-29.038107356233063A18,40 0 0 1 -12.379403662394095,29.038107356233063L13.343673260682822,83.1919535100792A18,40 0 0 0 38.102480585471014,25.115738797613083Z" fill="url(#ps-metal-edge)"/>
      <ellipse rx="18" ry="40" fill="url(#ps-metal)" stroke="#e1eff9" stroke-width="1.1"/>
    </g><g class="ps-meta-atom" data-region-index="0" data-array-row="1" data-array-column="0" data-radius-nm="25" transform="matrix(1 0.09090909090909091 -0.475 0.4 139.34 492.44)">
      <ellipse cx="25.723076923076917" cy="54.153846153846146" rx="10" ry="40" fill="#203b54"/>
      <path d="M4.657464328326223,-35.396728895279296A10,40 0 0 1 -4.657464328326223,35.396728895279296L21.065612594750693,89.55057504912544A10,40 0 0 0 30.38054125140314,18.75711725856685Z" fill="url(#ps-metal-edge)"/>
      <ellipse rx="10" ry="40" fill="url(#ps-metal)" stroke="#e1eff9" stroke-width="1.1"/>
    </g><g class="ps-meta-atom" data-region-index="0" data-array-row="1" data-array-column="1" data-radius-nm="25" transform="matrix(1 0.09090909090909091 -0.475 0.4 200.06 497.96)">
      <ellipse cx="25.723076923076917" cy="54.153846153846146" rx="10" ry="40" fill="#203b54"/>
      <path d="M4.657464328326223,-35.396728895279296A10,40 0 0 1 -4.657464328326223,35.396728895279296L21.065612594750693,89.55057504912544A10,40 0 0 0 30.38054125140314,18.75711725856685Z" fill="url(#ps-metal-edge)"/>
      <ellipse rx="10" ry="40" fill="url(#ps-metal)" stroke="#e1eff9" stroke-width="1.1"/>
    </g><g class="ps-meta-atom" data-region-index="1" data-array-row="1" data-array-column="0" data-radius-nm="30" transform="matrix(1 0.09090909090909091 -0.475 0.4 271.34 504.44)">
      <ellipse cx="25.723076923076917" cy="54.153846153846146" rx="12" ry="40" fill="#203b54"/>
      <path d="M6.407915896655781,-33.81955612123885A12,40 0 0 1 -6.407915896655781,33.81955612123885L19.315161026421137,87.973402275085A12,40 0 0 0 32.1309928197327,20.3342900326073Z" fill="url(#ps-metal-edge)"/>
      <ellipse rx="12" ry="40" fill="url(#ps-metal)" stroke="#e1eff9" stroke-width="1.1"/>
    </g><g class="ps-meta-atom" data-region-index="1" data-array-row="1" data-array-column="1" data-radius-nm="30" transform="matrix(1 0.09090909090909091 -0.475 0.4 332.06 509.96)">
      <ellipse cx="25.723076923076917" cy="54.153846153846146" rx="12" ry="40" fill="#203b54"/>
      <path d="M6.407915896655781,-33.81955612123885A12,40 0 0 1 -6.407915896655781,33.81955612123885L19.315161026421137,87.973402275085A12,40 0 0 0 32.1309928197327,20.3342900326073Z" fill="url(#ps-metal-edge)"/>
      <ellipse rx="12" ry="40" fill="url(#ps-metal)" stroke="#e1eff9" stroke-width="1.1"/>
    </g><g class="ps-meta-atom" data-region-index="2" data-array-row="1" data-array-column="0" data-radius-nm="35" transform="matrix(1 0.09090909090909091 -0.475 0.4 403.34 516.44)">
      <ellipse cx="25.723076923076917" cy="54.153846153846146" rx="14" ry="40" fill="#203b54"/>
      <path d="M8.304786532697902,-32.20223349413472A14,40 0 0 1 -8.304786532697902,32.20223349413472L17.418290390379013,86.35607964798086A14,40 0 0 0 34.02786345577482,21.95161265971143Z" fill="url(#ps-metal-edge)"/>
      <ellipse rx="14" ry="40" fill="url(#ps-metal)" stroke="#e1eff9" stroke-width="1.1"/>
    </g><g class="ps-meta-atom" data-region-index="2" data-array-row="1" data-array-column="1" data-radius-nm="35" transform="matrix(1 0.09090909090909091 -0.475 0.4 464.06 521.96)">
      <ellipse cx="25.723076923076917" cy="54.153846153846146" rx="14" ry="40" fill="#203b54"/>
      <path d="M8.304786532697902,-32.20223349413472A14,40 0 0 1 -8.304786532697902,32.20223349413472L17.418290390379013,86.35607964798086A14,40 0 0 0 34.02786345577482,21.95161265971143Z" fill="url(#ps-metal-edge)"/>
      <ellipse rx="14" ry="40" fill="url(#ps-metal)" stroke="#e1eff9" stroke-width="1.1"/>
    </g><g class="ps-meta-atom" data-region-index="3" data-array-row="1" data-array-column="0" data-radius-nm="40" transform="matrix(1 0.09090909090909091 -0.475 0.4 535.34 528.44)">
      <ellipse cx="25.723076923076917" cy="54.153846153846146" rx="16" ry="40" fill="#203b54"/>
      <path d="M10.306171932524474,-30.596447924682035A16,40 0 0 1 -10.306171932524474,30.596447924682035L15.416904990552442,84.75029407852819A16,40 0 0 0 36.029248855601395,23.55739822916411Z" fill="url(#ps-metal-edge)"/>
      <ellipse rx="16" ry="40" fill="url(#ps-metal)" stroke="#e1eff9" stroke-width="1.1"/>
    </g><g class="ps-meta-atom" data-region-index="3" data-array-row="1" data-array-column="1" data-radius-nm="40" transform="matrix(1 0.09090909090909091 -0.475 0.4 596.06 533.96)">
      <ellipse cx="25.723076923076917" cy="54.153846153846146" rx="16" ry="40" fill="#203b54"/>
      <path d="M10.306171932524474,-30.596447924682035A16,40 0 0 1 -10.306171932524474,30.596447924682035L15.416904990552442,84.75029407852819A16,40 0 0 0 36.029248855601395,23.55739822916411Z" fill="url(#ps-metal-edge)"/>
      <ellipse rx="16" ry="40" fill="url(#ps-metal)" stroke="#e1eff9" stroke-width="1.1"/>
    </g><g class="ps-meta-atom" data-region-index="4" data-array-row="1" data-array-column="0" data-radius-nm="45" transform="matrix(1 0.09090909090909091 -0.475 0.4 667.34 540.44)">
      <ellipse cx="25.723076923076917" cy="54.153846153846146" rx="18" ry="40" fill="#203b54"/>
      <path d="M12.379403662394095,-29.038107356233063A18,40 0 0 1 -12.379403662394095,29.038107356233063L13.343673260682822,83.1919535100792A18,40 0 0 0 38.102480585471014,25.115738797613083Z" fill="url(#ps-metal-edge)"/>
      <ellipse rx="18" ry="40" fill="url(#ps-metal)" stroke="#e1eff9" stroke-width="1.1"/>
    </g><g class="ps-meta-atom" data-region-index="4" data-array-row="1" data-array-column="1" data-radius-nm="45" transform="matrix(1 0.09090909090909091 -0.475 0.4 728.06 545.96)">
      <ellipse cx="25.723076923076917" cy="54.153846153846146" rx="18" ry="40" fill="#203b54"/>
      <path d="M12.379403662394095,-29.038107356233063A18,40 0 0 1 -12.379403662394095,29.038107356233063L13.343673260682822,83.1919535100792A18,40 0 0 0 38.102480585471014,25.115738797613083Z" fill="url(#ps-metal-edge)"/>
      <ellipse rx="18" ry="40" fill="url(#ps-metal)" stroke="#e1eff9" stroke-width="1.1"/>
    </g></g>
  <g class="ps-layer" data-layer="dcsl">
    <polygon points="79.00,370.00 739.00,430.00 739.00,594.00 79.00,534.00" fill="url(#ps-dielectric)" stroke="#9abbd1" stroke-opacity=".5"/><polygon points="834.00,350.00 739.00,430.00 739.00,594.00 834.00,514.00" fill="#7eb7d3" fill-opacity=".08" stroke="#9abbd1" stroke-opacity=".5"/>
    <path d="M174.00,454.00L174.00,290.00M834.00,514.00L834.00,350.00" stroke="#8aaccc" stroke-opacity=".35" stroke-dasharray="3 5"/>
  </g>
  <g class="ps-layer" data-layer="top-ag">
    <polygon points="79.00,362.00 739.00,422.00 739.00,430.00 79.00,370.00" fill="#a7bace" fill-opacity=".85" stroke="#d0e0ed" stroke-opacity=".7"/><polygon points="834.00,342.00 739.00,422.00 739.00,430.00 834.00,350.00" fill="#7894b2" stroke="#b6cfe3"/>
    <polygon points="174.00,282.00 834.00,342.00 739.00,422.00 79.00,362.00" fill="url(#ps-cap)" stroke="#bcd2e8" stroke-opacity=".7" stroke-width="1.3"/>
  </g>
  </g>
  <g class="ps-illumination" opacity="0"><g class="ps-incident-ray" data-input-index="0" data-origin="168.74,140.83999999999992" data-tip="168.74,473.8399999999999" data-length="333">
      <defs><clipPath id="ps-input-clip-0" clipPathUnits="userSpaceOnUse"><rect data-input-reveal x="146.74" y="473.8399999999999" width="44" height="0"/></clipPath></defs>
      <g clip-path="url(#ps-input-clip-0)"><path d="M164.74,140.83999999999992H172.74V473.8399999999999H164.74Z" fill="#f5f8ff" fill-opacity=".38"/></g>
      <g data-input-head transform="translate(0 0)"><path d="M158.74,458.8399999999999L168.74,473.8399999999999L178.74,458.8399999999999Z" fill="#f6faff" fill-opacity=".9"/></g>
    </g><g class="ps-incident-ray" data-input-index="1" data-origin="300.74,152.83999999999992" data-tip="300.74,485.8399999999999" data-length="333">
      <defs><clipPath id="ps-input-clip-1" clipPathUnits="userSpaceOnUse"><rect data-input-reveal x="278.74" y="485.8399999999999" width="44" height="0"/></clipPath></defs>
      <g clip-path="url(#ps-input-clip-1)"><path d="M296.74,152.83999999999992H304.74V485.8399999999999H296.74Z" fill="#f5f8ff" fill-opacity=".38"/></g>
      <g data-input-head transform="translate(0 0)"><path d="M290.74,470.8399999999999L300.74,485.8399999999999L310.74,470.8399999999999Z" fill="#f6faff" fill-opacity=".9"/></g>
    </g><g class="ps-incident-ray" data-input-index="2" data-origin="432.73999999999995,164.83999999999992" data-tip="432.73999999999995,497.8399999999999" data-length="333">
      <defs><clipPath id="ps-input-clip-2" clipPathUnits="userSpaceOnUse"><rect data-input-reveal x="410.73999999999995" y="497.8399999999999" width="44" height="0"/></clipPath></defs>
      <g clip-path="url(#ps-input-clip-2)"><path d="M428.73999999999995,164.83999999999992H436.73999999999995V497.8399999999999H428.73999999999995Z" fill="#f5f8ff" fill-opacity=".38"/></g>
      <g data-input-head transform="translate(0 0)"><path d="M422.73999999999995,482.8399999999999L432.73999999999995,497.8399999999999L442.73999999999995,482.8399999999999Z" fill="#f6faff" fill-opacity=".9"/></g>
    </g><g class="ps-incident-ray" data-input-index="3" data-origin="564.74,176.83999999999992" data-tip="564.74,509.8399999999999" data-length="333">
      <defs><clipPath id="ps-input-clip-3" clipPathUnits="userSpaceOnUse"><rect data-input-reveal x="542.74" y="509.8399999999999" width="44" height="0"/></clipPath></defs>
      <g clip-path="url(#ps-input-clip-3)"><path d="M560.74,176.83999999999992H568.74V509.8399999999999H560.74Z" fill="#f5f8ff" fill-opacity=".38"/></g>
      <g data-input-head transform="translate(0 0)"><path d="M554.74,494.8399999999999L564.74,509.8399999999999L574.74,494.8399999999999Z" fill="#f6faff" fill-opacity=".9"/></g>
    </g><g class="ps-incident-ray" data-input-index="4" data-origin="696.74,188.84000000000003" data-tip="696.74,521.84" data-length="333">
      <defs><clipPath id="ps-input-clip-4" clipPathUnits="userSpaceOnUse"><rect data-input-reveal x="674.74" y="521.84" width="44" height="0"/></clipPath></defs>
      <g clip-path="url(#ps-input-clip-4)"><path d="M692.74,188.84000000000003H700.74V521.84H692.74Z" fill="#f5f8ff" fill-opacity=".38"/></g>
      <g data-input-head transform="translate(0 0)"><path d="M686.74,506.84000000000003L696.74,521.84L706.74,506.84000000000003Z" fill="#f6faff" fill-opacity=".9"/></g>
    </g></g><g class="ps-output-rays" opacity="1"><g data-beam-index="0" data-origin="208.34,477.44000000000005" data-tip="208.34,131.44000000000005" data-length="346">
      <defs><clipPath id="ps-output-clip-0" clipPathUnits="userSpaceOnUse"><rect data-output-reveal x="170.34" y="131.44000000000005" width="76" height="346"/></clipPath></defs>
      <g clip-path="url(#ps-output-clip-0)">
        <path d="M203.34,477.44000000000005H213.34V329.44000000000005H203.34Z" data-color-index="0" fill="#defaa6" fill-opacity=".5"/>
        <path d="M193.34,329.44000000000005V149.44000000000005H223.34V329.44000000000005Z" data-color-index="0" fill="#defaa6" fill-opacity=".4" filter="url(#ps-glow)"/>
        <path d="M193.34,329.44000000000005V149.44000000000005H223.34V329.44000000000005Z" data-color-index="0" fill="#defaa6" fill-opacity=".92"/>
        <path d="M193.34,329.44000000000005V149.44000000000005H223.34V329.44000000000005Z" fill="url(#ps-beam-shine)"/>
        <ellipse cx="208.34" cy="329.44000000000005" rx="15" ry="4.5" data-color-index="0" fill="#defaa6"/>
      </g>
      <g data-output-head transform="translate(0 0)"><path d="M185.34,150.44000000000005L208.34,131.44000000000005L231.34,150.44000000000005Z" data-color-index="0" fill="#defaa6"/><path d="M185.34,150.44000000000005L208.34,131.44000000000005L231.34,150.44000000000005Z" fill="url(#ps-beam-shine)"/></g>
    </g><g data-beam-index="1" data-origin="340.34000000000003,489.44000000000005" data-tip="340.34000000000003,143.44000000000005" data-length="346">
      <defs><clipPath id="ps-output-clip-1" clipPathUnits="userSpaceOnUse"><rect data-output-reveal x="302.34000000000003" y="143.44000000000005" width="76" height="346"/></clipPath></defs>
      <g clip-path="url(#ps-output-clip-1)">
        <path d="M335.34000000000003,489.44000000000005H345.34000000000003V341.44000000000005H335.34000000000003Z" data-color-index="1" fill="#f6d4ef" fill-opacity=".5"/>
        <path d="M325.34000000000003,341.44000000000005V161.44000000000005H355.34000000000003V341.44000000000005Z" data-color-index="1" fill="#f6d4ef" fill-opacity=".4" filter="url(#ps-glow)"/>
        <path d="M325.34000000000003,341.44000000000005V161.44000000000005H355.34000000000003V341.44000000000005Z" data-color-index="1" fill="#f6d4ef" fill-opacity=".92"/>
        <path d="M325.34000000000003,341.44000000000005V161.44000000000005H355.34000000000003V341.44000000000005Z" fill="url(#ps-beam-shine)"/>
        <ellipse cx="340.34000000000003" cy="341.44000000000005" rx="15" ry="4.5" data-color-index="1" fill="#f6d4ef"/>
      </g>
      <g data-output-head transform="translate(0 0)"><path d="M317.34000000000003,162.44000000000005L340.34000000000003,143.44000000000005L363.34000000000003,162.44000000000005Z" data-color-index="1" fill="#f6d4ef"/><path d="M317.34000000000003,162.44000000000005L340.34000000000003,143.44000000000005L363.34000000000003,162.44000000000005Z" fill="url(#ps-beam-shine)"/></g>
    </g><g data-beam-index="2" data-origin="472.34000000000003,501.44000000000005" data-tip="472.34000000000003,155.44000000000005" data-length="346">
      <defs><clipPath id="ps-output-clip-2" clipPathUnits="userSpaceOnUse"><rect data-output-reveal x="434.34000000000003" y="155.44000000000005" width="76" height="346"/></clipPath></defs>
      <g clip-path="url(#ps-output-clip-2)">
        <path d="M467.34000000000003,501.44000000000005H477.34000000000003V353.44000000000005H467.34000000000003Z" data-color-index="2" fill="#ed9bfd" fill-opacity=".5"/>
        <path d="M457.34000000000003,353.44000000000005V173.44000000000005H487.34000000000003V353.44000000000005Z" data-color-index="2" fill="#ed9bfd" fill-opacity=".4" filter="url(#ps-glow)"/>
        <path d="M457.34000000000003,353.44000000000005V173.44000000000005H487.34000000000003V353.44000000000005Z" data-color-index="2" fill="#ed9bfd" fill-opacity=".92"/>
        <path d="M457.34000000000003,353.44000000000005V173.44000000000005H487.34000000000003V353.44000000000005Z" fill="url(#ps-beam-shine)"/>
        <ellipse cx="472.34000000000003" cy="353.44000000000005" rx="15" ry="4.5" data-color-index="2" fill="#ed9bfd"/>
      </g>
      <g data-output-head transform="translate(0 0)"><path d="M449.34000000000003,174.44000000000005L472.34000000000003,155.44000000000005L495.34000000000003,174.44000000000005Z" data-color-index="2" fill="#ed9bfd"/><path d="M449.34000000000003,174.44000000000005L472.34000000000003,155.44000000000005L495.34000000000003,174.44000000000005Z" fill="url(#ps-beam-shine)"/></g>
    </g><g data-beam-index="3" data-origin="604.34,513.44" data-tip="604.34,167.44000000000005" data-length="346">
      <defs><clipPath id="ps-output-clip-3" clipPathUnits="userSpaceOnUse"><rect data-output-reveal x="566.34" y="167.44000000000005" width="76" height="346"/></clipPath></defs>
      <g clip-path="url(#ps-output-clip-3)">
        <path d="M599.34,513.44H609.34V365.44000000000005H599.34Z" data-color-index="3" fill="#7cb7fd" fill-opacity=".5"/>
        <path d="M589.34,365.44000000000005V185.44000000000005H619.34V365.44000000000005Z" data-color-index="3" fill="#7cb7fd" fill-opacity=".4" filter="url(#ps-glow)"/>
        <path d="M589.34,365.44000000000005V185.44000000000005H619.34V365.44000000000005Z" data-color-index="3" fill="#7cb7fd" fill-opacity=".92"/>
        <path d="M589.34,365.44000000000005V185.44000000000005H619.34V365.44000000000005Z" fill="url(#ps-beam-shine)"/>
        <ellipse cx="604.34" cy="365.44000000000005" rx="15" ry="4.5" data-color-index="3" fill="#7cb7fd"/>
      </g>
      <g data-output-head transform="translate(0 0)"><path d="M581.34,186.44000000000005L604.34,167.44000000000005L627.34,186.44000000000005Z" data-color-index="3" fill="#7cb7fd"/><path d="M581.34,186.44000000000005L604.34,167.44000000000005L627.34,186.44000000000005Z" fill="url(#ps-beam-shine)"/></g>
    </g><g data-beam-index="4" data-origin="736.34,525.44" data-tip="736.34,179.44000000000005" data-length="346">
      <defs><clipPath id="ps-output-clip-4" clipPathUnits="userSpaceOnUse"><rect data-output-reveal x="698.34" y="179.44000000000005" width="76" height="346"/></clipPath></defs>
      <g clip-path="url(#ps-output-clip-4)">
        <path d="M731.34,525.44H741.34V377.44000000000005H731.34Z" data-color-index="4" fill="#01eefe" fill-opacity=".5"/>
        <path d="M721.34,377.44000000000005V197.44000000000005H751.34V377.44000000000005Z" data-color-index="4" fill="#01eefe" fill-opacity=".4" filter="url(#ps-glow)"/>
        <path d="M721.34,377.44000000000005V197.44000000000005H751.34V377.44000000000005Z" data-color-index="4" fill="#01eefe" fill-opacity=".92"/>
        <path d="M721.34,377.44000000000005V197.44000000000005H751.34V377.44000000000005Z" fill="url(#ps-beam-shine)"/>
        <ellipse cx="736.34" cy="377.44000000000005" rx="15" ry="4.5" data-color-index="4" fill="#01eefe"/>
      </g>
      <g data-output-head transform="translate(0 0)"><path d="M713.34,198.44000000000005L736.34,179.44000000000005L759.34,198.44000000000005Z" data-color-index="4" fill="#01eefe"/><path d="M713.34,198.44000000000005L736.34,179.44000000000005L759.34,198.44000000000005Z" fill="url(#ps-beam-shine)"/></g>
    </g></g>
  <g class="ps-layer-labels" font-size="13" fill="#d6e5f4" stroke-linecap="round">
    <path d="M817,349H858" fill="none" stroke="#a3bad2"/><text x="870" y="346">Ag top mirror</text><text x="870" y="365" fill="#849db7" font-size="11">15 nm · semitransparent</text>
    <path d="M790,435H858" fill="none" stroke="#83b0cb"/><text x="870" y="432">DCSL</text><text x="870" y="451" fill="#849db7" font-size="11">Planarization + cavity</text>
    <path d="M738,502H858" fill="none" stroke="#c2d4e6"/><text x="870" y="499">Al nano-ellipse</text><text x="870" y="518" fill="#849db7" font-size="11">20 nm · patterned metal</text>
    <path d="M786,562H858" fill="none" stroke="#a4ccde"/><text x="870" y="566">SiO₂ gap · 20 nm</text>
    <path d="M764,606H858" fill="none" stroke="#8ba9c6"/><text x="870" y="610">Al ground · 150 nm</text>
    <path d="M1020,484H1027V617H1020" fill="none" stroke="#557693"/><text x="1027" y="475" text-anchor="end" fill="#8daac5" font-size="11">MIM</text>
  </g>
  <g class="ps-radius-labels" fill="#d3e2f1" font-size="14" text-anchor="middle"><text x="145" y="618">r<tspan baseline-shift="sub" font-size="10">x</tspan> = 25 nm</text><text x="277" y="630">r<tspan baseline-shift="sub" font-size="10">x</tspan> = 30 nm</text><text x="409" y="642">r<tspan baseline-shift="sub" font-size="10">x</tspan> = 35 nm</text><text x="541" y="654">r<tspan baseline-shift="sub" font-size="10">x</tspan> = 40 nm</text><text x="673" y="666">r<tspan baseline-shift="sub" font-size="10">x</tspan> = 45 nm</text></g>
  <g class="ps-footnote" fill="#90a9c2" font-size="12">
    <text x="79" y="714">Fixed r<tspan baseline-shift="sub" font-size="9">y</tspan> = 100 nm · DCSL = 180 nm</text>
    <text x="961" y="714" text-anchor="end">Cutaway · vertical scale expanded · 2 × 2 array per design</text>
  </g></g></svg>
